<?xml version="1.0" encoding="iso-8859-1"?>
<!-- Uploaded to: SVG Repo, www.svgrepo.com, Generator: SVG Repo Mixer Tools -->
<svg version="1.1" id="Layer_1" xmlns="http://www.w3.org/2000/svg" xmlns:xlink="http://www.w3.org/1999/xlink" 
	 viewBox="0 0 512 512" xml:space="preserve">
<rect x="124.026" y="127.786" style="fill:#C5FFCA;" width="39.991" height="199.956"/>
<path style="fill:#AA603B;" d="M491.947,463.711c0,22.086-17.905,39.991-39.991,39.991c-22.086,0-39.991-17.905-39.991-39.991"/>
<rect x="419.965" y="255.76" style="fill:#F2BF7E;" width="63.648" height="15.996"/>
<rect x="411.965" y="279.751" style="fill:#AA603B;" width="79.982" height="23.991"/>
<rect x="220.009" y="135.787" style="fill:#F2BF7E;" width="143.964" height="111.973"/>
<path style="fill:#FFFFFF;" d="M363.817,295.325v40.415c-32.293,0-56.252,25.067-56.252,55.988v95.979
	c0,8.835-6.791,15.996-15.626,15.996s-15.626-7.162-15.626-15.996v-95.979c0-30.921-25.001-55.988-56.252-55.988v-40.415H363.817"/>
<path style="fill:#B3B3B3;" d="M292.124,503.49c-8.835,0-15.811-6.95-15.811-15.784v-95.979c0-30.921-25.001-55.988-56.252-55.988
	v-40.415h71.878"/>
<rect x="220.009" y="247.76" style="fill:#C5FFCA;" width="143.964" height="47.992"/>
<rect x="124.026" y="327.742" style="fill:#AA603B;" width="39.991" height="175.955"/>
<g>
	<polygon style="fill:#FFFFFF;" points="163.809,503.666 124.224,503.666 124.224,487.705 163.809,447.714 	"/>
	<polygon style="fill:#FFFFFF;" points="164.02,399.725 124.03,439.716 124.03,391.726 164.02,351.735 	"/>
</g>
<path d="M371.788,303.561H212.195v-63.615h159.593V303.561z M227.821,287.936h128.342v-32.364H227.821V287.936z"/>
<polygon points="372.151,231.78 356.525,231.78 356.525,143.235 227.353,143.235 227.353,231.78 211.727,231.78 211.727,127.609 
	372.151,127.609 "/>
<rect x="235.687" y="183.862" width="15.626" height="47.919"/>
<rect x="284.647" y="183.862" width="15.626" height="47.919"/>
<rect x="260.688" y="207.821" width="15.626" height="23.959"/>
<rect x="332.566" y="183.862" width="15.626" height="47.919"/>
<rect x="308.606" y="207.821" width="15.626" height="23.959"/>
<path d="M291.939,511.515c-13.212,0-23.959-10.681-23.959-23.808v-95.979c0-26.564-21.73-48.484-48.439-48.484h-7.813v-31.251
	h15.626v16.407c31.655,3.848,56.252,30.781,56.252,63.329v95.979c0,4.513,3.739,8.183,8.334,8.183s8.334-3.671,8.334-8.183v-95.979
	c0-33.139,24.143-59.625,56.252-63.352v-16.384h15.626v31.251h-7.813c-13.38,0-25.697,5.155-34.683,14.236
	c-8.871,8.964-13.757,21.227-13.757,34.248v95.979C315.898,500.834,305.151,511.515,291.939,511.515z"/>
<rect x="244.02" y="264.073" width="15.626" height="15.626"/>
<rect x="324.232" y="264.073" width="15.626" height="15.626"/>
<rect x="283.605" y="264.073" width="16.667" height="15.626"/>
<path style="fill:#C5FFCA;" d="M428.403,303.658v40.08l-16.667,15.996v103.977c0,22.086,18.02,39.991,40.106,39.991
	s40.106-17.905,40.106-39.991V359.734l-15.626-15.996v-40.08"/>
<path d="M499.76,311.56h-95.607v-39.62h95.607V311.56z M419.779,295.934h64.356v-8.369h-64.356V295.934z"/>
<polygon points="459.654,248.448 459.654,47.398 444.029,47.398 444.029,248.448 420.069,248.448 420.069,264.073 483.613,264.073 
	483.613,248.448 "/>
<path style="fill:#F2BF7E;" d="M491.947,463.711c0,22.086-18.02,39.991-40.106,39.991s-40.106-17.905-40.106-39.991v-7.963h80.212
	V463.711z"/>
<rect x="444.029" y="416.163" style="fill:#B3B3B3;" width="15.626" height="15.626"/>
<path d="M483.613,340.555v-21.271h-15.626v27.637l15.626,15.996v84.497h-63.544v-84.497l15.626-15.996v-27.637h-15.626v21.271
	l-15.626,15.996v107.16c0,26.359,21.262,47.804,47.398,47.804s47.398-21.445,47.398-47.804v-107.16L483.613,340.555z
	 M451.841,495.889c-17.518,0-31.772-14.435-31.772-32.178v-0.671h63.544v0.671C483.613,481.454,469.36,495.889,451.841,495.889z"/>
<rect x="180.018" y="23.809" style="fill:#AA603B;" width="31.993" height="39.991"/>
<g>
	<rect x="212.873" y="7.813" style="fill:#F2BF7E;" width="71.128" height="71.982"/>
	<path style="fill:#F2BF7E;" d="M20.053,79.797c0-17.669,14.323-31.993,31.993-31.993h32.586c12.924,0,23.402,10.478,23.402,23.402
		v32.586h71.984V7.813H60.044c-22.086,0-39.991,17.905-39.991,39.991V79.797"/>
</g>
<path style="fill:#AA603B;" d="M20.053,79.797c0-17.669,14.323-31.993,31.993-31.993h32.586c12.924,0,23.402,10.478,23.402,23.402
	v32.586h15.996v-48.66c0-26.133-21.185-47.319-47.319-47.319H60.044c-22.086,0-39.991,17.905-39.991,39.991V79.797"/>
<path d="M204.197,0v16.146H187.83V0H60.044C33.685,0,12.24,21.445,12.24,47.804v31.993h15.626c0-13.333,10.847-24.18,24.18-24.18
	h32.586c8.595,0,15.589,6.993,15.589,15.589v40.399h87.61V71.357h16.367V87.61h87.61V0H204.197z M172.204,95.979h-56.359V71.205
	c0-17.211-14.003-31.215-31.215-31.215H52.046c-9.087,0-17.473,3.061-24.18,8.206v-0.392c0-17.743,14.435-32.178,32.178-32.178
	h112.161v80.353H172.204z M187.83,55.731V31.772h16.367v23.959H187.83z M276.181,71.984h-56.359V15.626h56.359V71.984z"/>
<path d="M107.556,120.317v15.626h8.334V512h56.252V135.943h8.334v-15.626H107.556z M156.517,444.169l-25.001,25.001v-25.892
	l25.001-25.001V444.169z M156.517,396.18l-25.001,25.001v-25.892l25.001-25.001V396.18z M131.516,373.192v-37.241h25.001v12.24
	L131.516,373.192z M156.517,135.943v184.382h-25.001V135.943H156.517z M131.516,496.374v-5.106l25.001-25.001v30.107H131.516z"/>
<rect x="444.029" y="16.146" style="fill:#AA603B;" width="15.626" height="23.959"/>
</svg>