
<svg fill="#000000" height="200px" width="200px" version="1.1" id="Layer_1" xmlns="http://www.w3.org/2000/svg" xmlns:xlink="http://www.w3.org/1999/xlink" viewBox="0 0 512 512" xml:space="preserve" data-darkreader-inline-fill="" style="--darkreader-inline-fill: #000000;">
<g id="SVGRepo_bgCarrier" stroke-width="0"></g>
<g id="SVGRepo_tracerCarrier" stroke-linecap="round" stroke-linejoin="round"></g>
<g id="SVGRepo_iconCarrier"> <g transform="translate(1 1)"> 
    <g> 
        <g> 
            <path id="path126" d="M 373.576,92.448 C 379.404,86.318 383,78.047 383,68.973 383,50.2 367.64,34.84 348.867,34.84 c -18.773,0 -34.133,15.36 -34.133,34.133 0,9.075 3.596,17.345 9.424,23.475 -15.76,8.754 -26.63506,25.57846 -26.491,44.792 l 0.99604,132.84799 c 0.0384,5.11988 2.41696,19.55956 7.53696,19.55956 5.12,0 9.56743,-14.43968 9.52904,-19.55956 L 314.733,137.24 c -0.14075,-18.77255 15.36,-34.133 34.133,-34.133 18.773,0 34.26996,15.36043 34.133,34.133 l -0.99604,136.52351 c -0.0373,5.11988 5.40508,12.20852 10.52508,12.20852 5.12,0 6.50253,-10.76417 6.54092,-15.88404 L 400.065,137.24 c 0.002,-19.214 -10.729,-36.037 -26.489,-44.792 z M 331.8,68.973 c 0,-9.387 7.68,-17.067 17.067,-17.067 9.387,0 17.067,7.68 17.067,17.067 0,9.387 -7.68,17.067 -17.067,17.067 -9.387,0 -17.067,-7.68 -17.067,-17.067 z" inkscape:connector-curvature="0" sodipodi:nodetypes="cssscssssssssssccsssss" />
            <path id="path128" d="M 425.667,-1 H 84.333 c -14.507,0 -25.6,11.093 -25.6,25.6 v 460.8 c 0,14.507 11.093,25.6 25.6,25.6 h 341.333 c 14.507,0 25.6,-11.093 25.6,-25.6 V 24.6 C 451.267,10.093 440.173,-1 425.667,-1 Z m 8.533,486.4 c 0,5.12 -3.413,8.533 -8.533,8.533 H 84.333 c -5.12,0 -8.533,-3.413 -8.533,-8.533 V 24.6 c 0,-5.12 3.413,-8.533 8.533,-8.533 h 341.333 c 5.12,0 8.533,3.413 8.533,8.533 v 460.8 z" inkscape:connector-curvature="0" />
            <path id="path130" d="M 248.10342,219.94812 118.467,220.867 c -5.11985,0.0363 -8.533,3.413 -8.533,8.533 0,5.12 3.41441,8.64354 8.533,8.533 l 127.64534,-2.75664 c 5.1186,-0.11054 13.51319,-1.57524 13.51319,-6.69524 0,-5.12 -6.40226,-8.56929 -11.52211,-8.533 z" inkscape:connector-curvature="0" sodipodi:nodetypes="sssssss" />
            <path id="path132" d="M 391.533,340.333 H 118.467 c -5.12,0 -8.533,3.413 -8.533,8.533 0,5.12 3.413,8.533 8.533,8.533 h 273.067 c 5.12,0 8.533,-3.413 8.533,-8.533 0,-5.12 -3.414,-8.533 -8.534,-8.533 z" inkscape:connector-curvature="0" />
            <path id="path134" d="m 227.51294,297.53156 h -97.44913 c -5.12,0 -17.49735,4.33188 -17.49735,9.45188 0,5.12 14.36943,8.533 19.48943,8.533 h 95.45705 c 5.12,0 15.50527,-3.413 15.50527,-8.533 0,-5.119 -10.38527,-9.45188 -15.50527,-9.45188 z" inkscape:connector-curvature="0" sodipodi:nodetypes="sssssss" />
            <path id="path136" d="m 260.21955,433.13406 c 5.11944,-0.0702 17.49735,-3.413 17.49735,-8.533 0,-5.12 -13.37396,-8.60372 -18.49339,-8.533 l -133.03784,1.83776 c -5.11943,0.0707 -12.51716,3.413 -12.51716,8.533 0,5.12 7.39772,8.60319 12.51716,8.533 z" inkscape:connector-curvature="0" sodipodi:nodetypes="sssssss" />
            <path id="path138" d="m 263.533,314.733 h 25.6 c 5.12,0 8.533,-3.413 8.533,-8.533 0,-5.12 -3.413,-8.533 -8.533,-8.533 h -25.6 c -5.12,0 -8.533,3.413 -8.533,8.533 0,5.12 3.413,8.533 8.533,8.533 z" inkscape:connector-curvature="0" />
            <path id="path140" d="m 314.733,306.2 c 0,5.12 3.413,8.533 8.533,8.533 H 383 c 5.12,0 8.533,-3.413 8.533,-8.533 0,-5.12 -3.413,-8.533 -8.533,-8.533 h -59.733 c -5.12,0 -8.534,3.413 -8.534,8.533 z" inkscape:connector-curvature="0" />
            <path id="path142" d="m 118.467,280.6 h 42.667 c 5.12,0 8.533,-3.413 8.533,-8.533 0,-5.12 -3.413,-8.533 -8.533,-8.533 h -42.667 c -5.12,0 -8.533,3.413 -8.533,8.533 -10e-4,5.12 3.413,8.533 8.533,8.533 z" inkscape:connector-curvature="0" />
            <path id="path144" d="m 203.8,280.6 c 5.12,0 8.533,-3.413 8.533,-8.533 0,-5.12 -3.413,-8.533 -8.533,-8.533 h -8.533 c -5.12,0 -8.533,3.413 -8.533,8.533 0,5.12 3.413,8.533 8.533,8.533 z" inkscape:connector-curvature="0" />
            <path id="path146" d="m 297.667,391.533 c 0,-5.12 -3.413,-8.533 -8.533,-8.533 h -25.6 c -5.12,0 -8.533,3.413 -8.533,8.533 0,5.12 3.413,8.533 8.533,8.533 h 25.6 c 5.119,0.001 8.533,-3.413 8.533,-8.533 z" inkscape:connector-curvature="0" />
            <path id="path148" d="m 383,383 h -59.733 c -5.12,0 -8.533,3.413 -8.533,8.533 0,5.12 3.413,8.533 8.533,8.533 H 383 c 5.12,0 8.533,-3.413 8.533,-8.533 0,-5.12 -3.413,-8.533 -8.533,-8.533 z" inkscape:connector-curvature="0" />
            <path id="path150" d="m 323.267,417.133 h -25.6 c -5.12,0 -8.533,3.413 -8.533,8.533 0,5.12 3.413,8.533 8.533,8.533 h 25.6 c 5.12,0 8.533,-3.413 8.533,-8.533 0,-5.12 -3.413,-8.533 -8.533,-8.533 z" inkscape:connector-curvature="0" />
            <path id="path152" d="m 383,417.133 h -25.6 c -5.12,0 -8.533,3.413 -8.533,8.533 0,5.12 3.413,8.533 8.533,8.533 H 383 c 5.12,0 8.533,-3.413 8.533,-8.533 0,-5.12 -3.413,-8.533 -8.533,-8.533 z" inkscape:connector-curvature="0" />
            <path id="path154" d="m 161.133,383 h -42.667 c -5.12,0 -8.533,3.413 -8.533,8.533 0,5.12 3.413,8.533 8.533,8.533 h 42.667 c 5.12,0 8.533,-3.413 8.533,-8.533 0.001,-5.12 -3.413,-8.533 -8.533,-8.533 z" inkscape:connector-curvature="0" />
            <path id="path156" d="m 203.8,383 h -8.533 c -5.12,0 -8.533,3.413 -8.533,8.533 0,5.12 3.413,8.533 8.533,8.533 h 8.533 c 5.12,0 8.533,-3.413 8.533,-8.533 0,-5.12 -3.413,-8.533 -8.533,-8.533 z" inkscape:connector-curvature="0" />
            <path id="path158" d="M 118.467,84.333 H 178.2 c 5.12,0 8.533,-3.413 8.533,-8.533 0,-5.12 -3.413,-8.533 -8.533,-8.533 h -59.733 c -5.12,0 -8.533,3.413 -8.533,8.533 0,5.12 3.413,8.533 8.533,8.533 z" inkscape:connector-curvature="0" />
            <path id="path160" d="M 118.467,152.6 H 178.2 c 5.12,0 8.533,-3.413 8.533,-8.533 0,-5.12 -3.413,-8.533 -8.533,-8.533 h -59.733 c -5.12,0 -8.533,3.413 -8.533,8.533 -10e-4,5.12 3.413,8.533 8.533,8.533 z" inkscape:connector-curvature="0" />
            <path id="path162" d="m 212.333,84.333 h 8.533 c 5.12,0 8.533,-3.413 8.533,-8.533 0,-5.12 -3.413,-8.533 -8.533,-8.533 h -8.533 c -5.12,0 -8.533,3.413 -8.533,8.533 0,5.12 3.413,8.533 8.533,8.533 z" inkscape:connector-curvature="0" />
            <path id="path164" d="M 212.333,118.467 H 255 c 5.12,0 8.533,-3.413 8.533,-8.533 0,-5.12 -3.413,-8.534 -8.533,-8.534 h -42.667 c -5.12,0 -8.533,3.413 -8.533,8.533 0,5.12 3.413,8.534 8.533,8.534 z" inkscape:connector-curvature="0" />
            <path id="path166" d="m 212.333,152.6 h 8.533 c 5.12,0 8.533,-3.413 8.533,-8.533 0,-5.12 -3.413,-8.533 -8.533,-8.533 h -8.533 c -5.12,0 -8.533,3.413 -8.533,8.533 0,5.12 3.413,8.533 8.533,8.533 z" inkscape:connector-curvature="0" />
            <path id="path168" d="M 132.6499,187.65188 255,186.733 c 5.11983,-0.0385 8.533,-3.413 8.533,-8.533 0,-5.12 -3.4137,-8.61117 -8.533,-8.533 l -120.35802,1.83776 c -5.1193,0.0782 -17.49735,3.413 -17.49735,8.533 0,5.12 10.38544,7.65257 15.50527,7.61412 z" inkscape:connector-curvature="0" sodipodi:nodetypes="sssssss" />
        </g> 
    </g>
</g> 
</g>
</svg>