<svg width="500" height="463" viewBox="0 0 500 463" fill="none" xmlns="http://www.w3.org/2000/svg">
    <path style="fill:#000000" d="m 249.14077,-0.0764368 c -122.093,0 -221.048899,98.5979468 -221.048899,220.2480468 0,17.198 2.012,34.02491 5.877,50.37891 -5.2416,2.268 -10.2705,5.80292 -14.9297,10.91992 -9.4773,10.234 -14.5079998,23.42295 -12.4960998,37.87695 0.3177,2.427 0.7945,4.64269 1.377,6.80469 -2.7536,4.115 -4.9244,8.75853 -6.2481,13.76953 -2.912,11.026 -1.9581,20.99617 1.7481,29.70117 -4.0243,11.394 -3.019,23.52713 2.2226,34.07813 3.8119998,7.702 9.2660998,13.66418 15.9901998,18.99218 7.9948,6.33 18.0007,11.71086 30.0723,16.88086 14.4011,6.12 31.9798,11.87047 39.9746,13.98047 20.648299,5.328 40.449599,8.70428 60.515599,8.86328 28.591,0.263 53.2108,-6.43703 70.8418,-23.58203 8.63,1.055 17.3146,1.58203 26.1036,1.58203 9.265,0 18.4779,-0.63223 27.5839,-1.74023 17.578,17.251 42.304,24.00323 71,23.74023 20.067,-0.159 39.8669,-3.53528 60.4629,-8.86328 8.048,-2.11 25.6264,-7.86047 40.0274,-13.98047 12.071,-5.17 22.077,-10.55086 30.125,-16.88086 6.671,-5.328 12.1255,-11.29018 15.9375,-18.99218 5.295,-10.551 6.2483,-22.68413 2.2773,-34.07813 3.653,-8.705 4.6054,-18.67517 1.6934,-29.70117 -1.323,-5.011 -3.4951,-9.65453 -6.2481,-13.76953 0.582,-2.162 1.06,-4.37795 1.377,-6.75195 2.012,-14.455 -3.0191,-27.69569 -12.4961,-37.92969 -5.136,-5.592 -10.6409,-9.28474 -16.4649,-11.55274 3.759,-16.09 5.7715,-32.75909 5.7715,-49.74609 0,-7.649 -0.424,-15.14134 -1.166,-22.52734 -0.37,-3.693 -0.846,-7.38539 -1.375,-11.02539 -1.694,-10.973 -4.184,-21.62875 -7.4141,-31.96875 -2.1694,-6.911 -4.6061,-13.66282 -7.4121,-20.25782 -4.236,-9.865 -9.107,-19.35959 -14.666,-28.43359 -3.653,-6.0665 -7.6231,-11.921707 -11.9121,-17.566407 -2.117,-2.8487 -4.2874,-5.645437 -6.5644,-8.335937 -6.724,-8.1768 -14.084,-15.825466 -21.92,-22.947266 -2.595,-2.3739 -5.2958,-4.694556 -8.0488,-6.910156 -2.7,-2.2684 -5.5045,-4.432769 -8.3105,-6.542969 -5.666,-4.2203 -11.5959,-8.176339 -17.6309,-11.869141 -33.462,-20.2575 -72.6939,-31.8632808 -114.6269,-31.8632808 z m 0.8203,17.9999998 c 113.218,0 205,91.222007 205,203.749997 0,21.28733 -3.2899,41.81055 -9.3828,61.09961 0.3834,-0.0156 0.7652,-0.0254 1.1425,-0.0254 8.156,0 15.5235,3.10505 20.7325,8.74805 6.694,7.242 9.666,16.14383 8.371,25.04883 -0.615,4.241 -2.0398,8.04154 -4.1718,11.56054 4.494,3.613 7.8043,8.64532 9.4043,14.69532 1.252,4.743 2.536,14.62087 -4.168,24.79687 0.426,0.664 0.8252,1.35258 1.1992,2.0586 4.031,7.603 4.2875,16.19431 0.7305,24.19531 -5.393,12.126 -18.7943,21.68054 -44.8203,31.93554 -16.191,6.379 -31.0038,10.45814 -31.1348,10.49415 -21.406,5.51699 -40.7664,8.32031 -57.5254,8.32031 -27.3828,0 -47.8414,-7.41686 -60.9648,-22.05078 -11.1901,1.8801 -22.6838,2.87304 -34.4121,2.87304 -12.0022,0 -23.7588,-1.03495 -35.1953,-3.00195 -13.1194,14.71918 -33.6193,22.17969 -61.0821,22.17969 -16.759,0 -36.118,-2.80334 -57.523399,-8.32031 -0.1315,-0.036 -14.9456,-4.11515 -31.1367,-10.49415 -26.0257,-10.255 -39.4268,-19.80954 -44.8203,-31.93554 -3.5571,-8.001 -3.3003,-16.59233 0.7304,-24.19531 0.3736,-0.70601 0.775,-1.3946 1.2012,-2.0586 -6.7037,-10.176 -5.4203,-20.05387 -4.168,-24.79687 1.5997,-6.05 4.9087,-11.08232 9.4024,-14.69532 -2.1311,-3.519 -3.5562,-7.31954 -4.1719,-11.56054 -1.2944,-8.905 1.6779,-17.80683 8.3711,-25.04883 5.2094,-5.643 12.5763,-8.74805 20.7324,-8.74805 0.6767,0 1.3665,0.0305 2.0625,0.0801 -6.1041,-19.3051 -9.4023,-39.84666 -9.4023,-61.1543 0,-112.52799 91.781999,-203.749997 204.999999,-203.749997 z m 201.8242,375.380857 c -0.4746,0.31965 -0.9544,0.63825 -1.4551,0.95508 0.495,-0.31695 0.9887,-0.63491 1.4551,-0.95508 z m -404.546899,0.002 c 0.4337,0.29768 0.8931,0.5918 1.3516,0.88671 -0.4629,-0.29416 -0.9112,-0.59014 -1.3516,-0.88671 z m 402.658199,1.23046 c -1.61,1.00159 -3.3397,1.98948 -5.1601,2.95508 1.8323,-0.96462 3.5611,-1.95051 5.1601,-2.95508 z m -5.1601,2.95508 c -0.6219,0.32986 -1.2672,0.65367 -1.9082,0.97852 0.6465,-0.32371 1.2829,-0.64938 1.9082,-0.97852 z M 49.173971,394.56614 c 1.5853,0.99386 3.2978,1.97109 5.1113,2.92578 -1.8035,-0.95656 -3.5141,-1.93385 -5.1113,-2.92578 z m 139.009699,21.43359 c -0.2631,0.13406 -0.5186,0.27877 -0.7851,0.40821 0.2882,-0.12158 0.5654,-0.25912 0.8496,-0.38672 -0.0217,-0.007 -0.0429,-0.0147 -0.0645,-0.0215 z m 122.9903,0.18165 c -0.0119,0.004 -0.0234,0.008 -0.0352,0.0117 0.102,0.0446 0.208,0.0831 0.3105,0.12696 -0.0925,-0.0454 -0.1832,-0.0927 -0.2753,-0.13867 z"id="path4913" inkscape:connector-curvature="0" />
    <path style="fill:#010101" d="M 250,18 C 136.782,18 45,109.222 45,221.75 c 0,30.33524 6.68058,59.11562 18.64258,84.98438 18.79715,9.03311 44.41601,31.96484 44.41601,31.96484 0,0 1.41739,1.44474 3.50977,3.27344 C 83.29712,309.8419 66.16211,267.78715 66.16211,221.75 66.16211,120.838 148.469,39.033203 250,39.033203 c 101.531,0 183.8398,81.804797 183.8398,182.716797 0,44.15994 -15.76232,84.66196 -41.99996,116.25 3.00078,-2.65676 27.06808,-23.72736 44.77146,-31.80664 C 448.4161,280.46503 455,251.87313 455,221.75 455,109.222 363.218,18 250,18 Z m 162.53516,327.91016 c -23.05864,14.04181 -25.28421,18.41992 -21.9336,24.10156 7.93592,-7.43715 15.27062,-15.49809 21.9336,-24.10156 z m -324.25782,1.05273 c 6.279,7.99984 13.14133,15.52408 20.53125,22.50391 2.80617,-5.28448 0.19906,-9.73306 -20.53125,-22.50391 z m 117.20508,52.09766 c -0.99031,1.6731 -2.07962,3.3736 -3.28515,5.11328 -3.59841,5.19189 -8.38934,9.06883 -13.95899,11.9082 19.49126,6.11361 40.2376,9.41797 61.76172,9.41797 21.32153,0 41.88168,-3.23869 61.21289,-9.24219 -5.72,-2.85444 -10.63836,-6.78307 -14.3125,-12.08398 -1.15948,-1.67335 -2.20946,-3.31031 -3.16992,-4.92188 -14.01767,3.39997 -28.65938,5.2168 -43.73047,5.2168 -15.35318,0 -30.26167,-1.88378 -44.51758,-5.4082 z"id="path5157" inkscape:connector-curvature="0" />
    <path d="m 90.9935,255 c -8.5191,0 -16.1332,3.477 -21.4425,9.784 -3.2835,3.906 -6.7143,10.202 -6.9932,19.63 -3.5728,-1.02 -7.0089,-1.59 -10.2187,-1.59 -8.1561,0 -15.5228,3.106 -20.7322,8.749 -6.6932,7.242 -9.6662,16.142 -8.3718,25.047 0.6157,4.241 2.0417,8.043 4.1728,11.562 -4.4937,3.613 -7.8035,8.644 -9.4032,14.694 -1.2523,4.743 -2.5362,14.621 4.1675,24.797 -0.4262,0.664 -0.8261,1.354 -1.1997,2.06 -4.0307,7.603 -4.2885,16.194 -0.7314,24.195 5.3935,12.126 18.7957,21.68 44.8214,31.935 16.1911,6.379 31.0036,10.458 31.1351,10.494 21.4054,5.517 40.7644,8.32 57.5234,8.32 30.804,0 52.857,-9.376 65.549,-27.866 20.427,-29.775 17.506,-57.008 -8.924,-83.259 -14.629,-14.526 -24.353,-35.945 -26.379,-40.646 -4.083,-13.92 -14.881,-29.393 -32.829,-29.393 h -0.005 c -1.511,0 -3.037,0.12 -4.541,0.356 -7.862,1.228 -14.734,5.726 -19.643,12.492 -5.299,-6.547 -10.445,-11.755 -15.102,-14.694 C 104.827,257.243 97.813,255 90.9935,255 Z m 0,20.917 c 2.6836,0 5.9618,1.134 9.5765,3.414 11.224,7.075 32.882,44.072 40.812,58.462 2.657,4.821 7.199,6.861 11.287,6.861 8.114,0 14.449,-8.016 0.742,-18.203 -20.611,-15.327 -13.381,-40.379 -3.541,-41.922 0.431,-0.068 0.857,-0.099 1.268,-0.099 8.945,0 12.892,15.321 12.892,15.321 0,0 11.565,28.865 31.435,48.595 19.869,19.734 20.895,35.573 6.414,56.678 -9.877,14.391 -28.783,16.268 -48.158,16.268 -20.095,0 -40.731,-3.52 -52.276,-6.496 -0.568,-0.146 -70.7431,-18.541 -61.8504,-35.316 1.4944,-2.819 3.957,-3.948 7.0563,-3.948 12.5235,0 35.3026,18.522 45.0951,18.522 2.189,0 3.8202,-1.683 4.4516,-3.942 4.3574,-15.59 -63.533,-20.374 -57.8343,-41.923 1.005,-3.812 3.7307,-5.36 7.5615,-5.355 16.5489,0 53.6773,28.922 61.4602,28.922 0.594,0 1.02,-0.172 1.252,-0.538 3.899,-6.254 2.103,-11.346 -25.38,-27.875 -27.4832,-16.535 -47.1142,-25.755 -36.143,-37.625 1.2628,-1.371 3.0519,-1.977 5.2251,-1.977 16.6857,0.005 56.1079,35.657 56.1079,35.657 0,0 10.64,10.997 17.076,10.997 1.478,0 2.736,-0.58 3.588,-2.013 4.562,-7.645 -42.3744,-42.994 -45.0212,-57.578 -1.7943,-9.883 1.2576,-14.887 6.9037,-14.887 z" id="path5163"inkscape:connector-curvature="0" style="fill:#010101" />
    <path d="m 408.105,255 c 8.519,0 16.133,3.477 21.442,9.784 3.284,3.906 6.715,10.202 6.994,19.63 3.572,-1.02 7.008,-1.59 10.218,-1.59 8.156,0 15.523,3.106 20.732,8.749 6.694,7.242 9.667,16.142 8.372,25.047 -0.615,4.241 -2.041,8.043 -4.173,11.562 4.494,3.613 7.804,8.644 9.404,14.694 1.252,4.743 2.536,14.621 -4.168,24.797 0.426,0.664 0.826,1.354 1.2,2.06 4.031,7.603 4.288,16.194 0.731,24.195 -5.393,12.126 -18.795,21.68 -44.821,31.935 -16.191,6.379 -31.004,10.458 -31.135,10.494 -21.406,5.517 -40.765,8.32 -57.524,8.32 -30.804,0 -52.857,-9.376 -65.548,-27.866 -20.427,-29.775 -17.507,-57.008 8.924,-83.259 14.628,-14.526 24.352,-35.945 26.378,-40.646 4.083,-13.92 14.881,-29.393 32.83,-29.393 h 0.005 c 1.51,0 3.036,0.12 4.541,0.356 7.861,1.228 14.733,5.726 19.643,12.492 5.299,-6.547 10.445,-11.755 15.102,-14.694 7.019,-4.424 14.033,-6.667 20.853,-6.667 z m 0,20.917 c -2.684,0 -5.962,1.134 -9.577,3.414 -11.224,7.075 -32.882,44.072 -40.812,58.462 -2.657,4.821 -7.198,6.861 -11.287,6.861 -8.114,0 -14.449,-8.016 -0.742,-18.203 20.612,-15.327 13.382,-40.379 3.542,-41.922 -0.432,-0.068 -0.858,-0.099 -1.268,-0.099 -8.946,0 -12.892,15.321 -12.892,15.321 0,0 -11.566,28.865 -31.435,48.595 -19.87,19.734 -20.896,35.573 -6.415,56.678 9.877,14.391 28.783,16.268 48.158,16.268 20.095,0 40.731,-3.52 52.276,-6.496 0.568,-0.146 70.744,-18.541 61.851,-35.316 -1.495,-2.819 -3.957,-3.948 -7.057,-3.948 -12.523,0 -35.302,18.522 -45.095,18.522 -2.189,0 -3.82,-1.683 -4.451,-3.942 -4.358,-15.59 63.533,-20.374 57.834,-41.923 -1.005,-3.812 -3.731,-5.36 -7.561,-5.355 -16.549,0 -53.678,28.922 -61.46,28.922 -0.595,0 -1.021,-0.172 -1.253,-0.538 -3.899,-6.254 -2.103,-11.346 25.38,-27.875 27.484,-16.535 47.115,-25.755 36.143,-37.625 -1.262,-1.371 -3.052,-1.977 -5.225,-1.977 -16.685,0.005 -56.108,35.657 -56.108,35.657 0,0 -10.64,10.997 -17.075,10.997 -1.479,0 -2.736,-0.58 -3.589,-2.013 -4.562,-7.645 42.375,-42.994 45.022,-57.578 1.794,-9.883 -1.258,-14.887 -6.904,-14.887 z" id="path5167"inkscape:connector-curvature="0" style="fill:#010101" />
    <path d="M319.277 228.901C319.277 205.236 288.585 241.304 250.637 241.465C212.692 241.306 182 205.238 182 228.901C182 244.591 189.507 270.109 209.669 285.591C213.681 271.787 235.726 260.729 238.877 262.317C243.364 264.578 243.112 270.844 250.637 276.365C258.163 270.844 257.911 264.58 262.398 262.317C265.551 260.729 287.594 271.787 291.605 285.591C311.767 270.109 319.275 244.591 319.275 228.903L319.277 228.901Z"fill="#000000" id="path5169" />
    <path d="M262.4 262.315C257.913 264.576 258.165 270.842 250.639 276.363C243.114 270.842 243.366 264.578 238.879 262.315C235.726 260.727 213.683 271.785 209.672 285.589C219.866 293.417 233.297 298.678 250.627 298.806C250.631 298.806 250.635 298.806 250.641 298.806C250.646 298.806 250.65 298.806 250.656 298.806C267.986 298.68 281.417 293.417 291.611 285.589C287.6 271.785 265.555 260.727 262.404 262.315H262.4Z"fill="#010101" id="path5171" />
    <path d="M373 196C382.389 196 390 188.389 390 179C390 169.611 382.389 162 373 162C363.611 162 356 169.611 356 179C356 188.389 363.611 196 373 196Z"fill="#010101" id="path5173" />
    <path d="M128 196C137.389 196 145 188.389 145 179C145 169.611 137.389 162 128 162C118.611 162 111 169.611 111 179C111 188.389 118.611 196 128 196Z"fill="#010101" id="path5175" />
    <path d="M313.06 171.596C319.796 173.968 322.476 187.779 329.281 184.171C342.167 177.337 347.06 161.377 340.208 148.524C333.356 135.671 317.354 130.792 304.467 137.626C291.58 144.46 286.688 160.419 293.54 173.272C296.774 179.339 307.039 169.475 313.06 171.596Z"fill="#010101" id="path5177" />
    <path d="M188.554 171.596C181.818 173.968 179.138 187.779 172.334 184.171C159.447 177.337 154.555 161.377 161.407 148.524C168.259 135.671 184.26 130.792 197.147 137.626C210.034 144.46 214.926 160.419 208.074 173.272C204.84 179.339 194.575 169.475 188.554 171.596Z"fill="#010101" id="path5179" />
</svg>